PSF_US_stride5.mot
nRows=147
nColumns=3

name PSF_US_stride5.mot
datacolumns 3
datarows 147
range 2.550000 3.280000
endheader
time	soleus_l	med_gas_l
        2.5500000000	       34.6515024980	       37.2302106640	
        2.5550000000	       34.7280773061	       37.1005697849	
        2.5600000000	       34.7937682987	       36.8982195431	
        2.5650000000	       34.8186055891	       36.5726150255	
        2.5700000000	       34.8047515175	       36.1416695044	
        2.5750000000	       34.7351857531	       35.6331304774	
        2.5800000000	       34.6411999844	       35.1049979856	
        2.5850000000	       34.5685078591	       34.7346186656	
        2.5900000000	       34.5121750415	       34.4338120614	
        2.5950000000	       34.4663064240	       34.1311366663	
        2.6000000000	       34.4550297131	       33.9220988882	
        2.6050000000	       34.4495665884	       33.7573152940	
        2.6100000000	       34.4301191491	       33.5992801157	
        2.6150000000	       34.3738384541	       33.4497250119	
        2.6200000000	       34.2909938305	       33.3235408321	
        2.6250000000	       34.1425032003	       33.1634427404	
        2.6300000000	       33.9386309375	       33.0218762924	
        2.6350000000	       33.7187698426	       32.9540569030	
        2.6400000000	       33.5206507673	       32.9409988012	
        2.6450000000	       33.3932911830	       32.9812997940	
        2.6500000000	       33.2786299616	       33.0560371379	
        2.6550000000	       33.1990665641	       33.1454904251	
        2.6600000000	       33.1668596135	       33.1878464331	
        2.6650000000	       33.1573017696	       33.1470674329	
        2.6700000000	       33.1277390905	       32.9906270309	
        2.6750000000	       33.0718894617	       32.7887474774	
        2.6800000000	       32.9730098811	       32.5339536469	
        2.6850000000	       32.7643734116	       32.1290936034	
        2.6900000000	       32.4963729889	       31.7141245694	
        2.6950000000	       32.1844802260	       31.3101826995	
        2.7000000000	       31.8529274216	       30.9406567705	
        2.7050000000	       31.5685521058	       30.6559664367	
        2.7100000000	       31.3617961108	       30.4616607608	
        2.7150000000	       31.1111713623	       30.2249357696	
        2.7200000000	       30.8614774437	       29.9775067866	
        2.7250000000	       30.6170325587	       29.7240275408	
        2.7300000000	       30.3477259632	       29.4507413166	
        2.7350000000	       30.0338572008	       29.1707738214	
        2.7400000000	       29.7532223028	       28.9649064261	
        2.7450000000	       29.4107984872	       28.7621982868	
        2.7500000000	       28.9411457848	       28.5487765781	
        2.7550000000	       28.4489800711	       28.3809324309	
        2.7600000000	       27.9698042055	       28.2443079835	
        2.7650000000	       27.5407316078	       28.1096194334	
        2.7700000000	       27.2192877460	       27.9755465291	
        2.7750000000	       26.9633693547	       27.8293328830	
        2.7800000000	       26.6228042064	       27.5753937831	
        2.7850000000	       26.2380331317	       27.2611178100	
        2.7900000000	       25.7611558490	       26.9003451332	
        2.7950000000	       25.2453580936	       26.5704616722	
        2.8000000000	       24.7932642334	       26.3292129647	
        2.8050000000	       24.1453666866	       26.0403315571	
        2.8100000000	       23.4621308921	       25.7797500959	
        2.8150000000	       22.8744150698	       25.5660551403	
        2.8200000000	       22.4287128556	       25.3770432747	
        2.8250000000	       22.1879709683	       25.2123672069	
        2.8300000000	       22.2019078382	       25.1044022358	
        2.8350000000	       22.2802450871	       25.0095692414	
        2.8400000000	       22.6460540993	       24.9380297923	
        2.8450000000	       23.1681698594	       24.9252428108	
        2.8500000000	       23.8122798566	       24.9801830166	
        2.8550000000	       24.5363845689	       25.0986788262	
        2.8600000000	       25.1473195596	       25.2371448698	
        2.8650000000	       25.6525807419	       25.3794729578	
        2.8700000000	       26.3373293770	       25.6174009744	
        2.8750000000	       26.9528656645	       25.8949954145	
        2.8800000000	       27.5045894109	       26.2147073548	
        2.8850000000	       28.0002484706	       26.5667672344	
        2.8900000000	       28.4134663861	       26.8980544258	
        2.8950000000	       28.7127228378	       27.1443941495	
        2.9000000000	       29.0611954710	       27.4089212816	
        2.9050000000	       29.4437716730	       27.6519745875	
        2.9100000000	       29.7848980494	       27.8125263404	
        2.9150000000	       30.0943074816	       27.9115797555	
        2.9200000000	       30.3107708607	       27.9580645626	
        2.9250000000	       30.5239697196	       27.9968456745	
        2.9300000000	       30.7613172942	       28.0399512671	
        2.9350000000	       30.9780258588	       28.0915021488	
        2.9400000000	       31.1964367519	       28.1519969182	
        2.9450000000	       31.4447725121	       28.2159413822	
        2.9500000000	       31.6802347461	       28.2670092866	
        2.9550000000	       31.9052498465	       28.3087805591	
        2.9600000000	       32.2340197930	       28.3675682119	
        2.9650000000	       32.5712679225	       28.4429125246	
        2.9700000000	       32.8929949178	       28.5474665453	
        2.9750000000	       33.1854458145	       28.6926055384	
        2.9800000000	       33.4293185663	       28.8690155969	
        2.9850000000	       33.6027289296	       29.0319294690	
        2.9900000000	       33.7933260546	       29.2275347819	
        2.9950000000	       34.0016489155	       29.4276374272	
        3.0000000000	       34.2277242692	       29.5991410647	
        3.0050000000	       34.4824663433	       29.7373825652	
        3.0100000000	       34.7599551979	       29.8453024625	
        3.0150000000	       34.9760168759	       29.9152529078	
        3.0200000000	       35.1930961534	       29.9853533326	
        3.0250000000	       35.4394069372	       30.0796317029	
        3.0300000000	       35.6227317759	       30.1865171578	
        3.0350000000	       35.7370812664	       30.3097371318	
        3.0400000000	       35.7844273633	       30.4449339105	
        3.0450000000	       35.7914636274	       30.5576206342	
        3.0500000000	       35.7814385788	       30.6413611449	
        3.0550000000	       35.7631389364	       30.7288573357	
        3.0600000000	       35.7550691534	       30.7844000603	
        3.0650000000	       35.7571970670	       30.8139464516	
        3.0700000000	       35.7720188273	       30.8338803040	
        3.0750000000	       35.7911448597	       30.8552860307	
        3.0800000000	       35.8301026583	       30.9028229509	
        3.0850000000	       35.9066273450	       30.9853505572	
        3.0900000000	       36.0412934386	       31.0921002010	
        3.0950000000	       36.2620674616	       31.2062703333	
        3.1000000000	       36.5728246690	       31.3032576239	
        3.1050000000	       36.8489219932	       31.3526408802	
        3.1100000000	       37.1460306906	       31.3884618289	
        3.1150000000	       37.4944452476	       31.4226429533	
        3.1200000000	       37.7743371147	       31.4841657837	
        3.1250000000	       37.9378261112	       31.6119746670	
        3.1300000000	       38.0064611005	       31.8346710139	
        3.1350000000	       38.0359007295	       32.1088971893	
        3.1400000000	       38.0540885452	       32.3992020558	
        3.1450000000	       38.1154984401	       32.8355552166	
        3.1500000000	       38.2347415266	       33.3285906318	
        3.1550000000	       38.3999046566	       33.8294794614	
        3.1600000000	       38.5612203775	       34.3209148708	
        3.1650000000	       38.6566725123	       34.7762387319	
        3.1700000000	       38.6494541403	       35.1086878541	
        3.1750000000	       38.5919110721	       35.4676550739	
        3.1800000000	       38.3907864799	       35.8370168765	
        3.1850000000	       38.1425970123	       36.1337990546	
        3.1900000000	       37.9116725386	       36.3795591919	
        3.1950000000	       37.8032089103	       36.5351593301	
        3.2000000000	       37.7728150033	       36.6935255962	
        3.2050000000	       37.8023165539	       36.9088780457	
        3.2100000000	       37.8748124256	       37.1401917212	
        3.2150000000	       37.8542516862	       37.3936803147	
        3.2200000000	       37.7003482964	       37.6632711246	
        3.2250000000	       37.3913331465	       37.8792665513	
        3.2300000000	       37.0124401629	       38.0366404359	
        3.2350000000	       36.4053361533	       38.2035126511	
        3.2400000000	       35.7274941084	       38.2963036880	
        3.2450000000	       35.1088618516	       38.3023065719	
        3.2500000000	       34.6352445768	       38.2204504917	
        3.2550000000	       34.3557163736	       38.0424452502	
        3.2600000000	       34.2547238658	       37.8676721290	
        3.2650000000	       34.2474929437	       37.6334026789	
        3.2700000000	       34.3047784681	       37.3515494580	
        3.2750000000	       34.3998175531	       37.1171752059	
        3.2800000000	       34.4676987355	       36.9326020193	
